# xmcd CD database file
#
# Track frame offsets:
#	150
#	20642
#	32295
#	40280
#	52367
#	73815
#	98462
#	112280
#	127450
#	154145
#	166040
#	174545
#	194285
#
# Disc length: 2899 seconds
#
# Revision: 3
# Processed by: cddbd v1.5.2PL0 Copyright (c) Steve Scherf et al.
# Submitted via: CDex 1.51
#
DISCID=b90b510d
DTITLE=The Young Gods - The Young Gods
DYEAR=1987
DGENRE=Industrial
TTITLE0=Nous De La Lune
TTITLE1=Jusqu'au Bout
TTITLE2=A Ciel Ouvert
TTITLE3=Jimmy
TTITLE4=Fais La Mouette
TTITLE5=Percussionne
TTITLE6=Feu
TTITLE7=Did You Miss Me
TTITLE8=Si Tu Gardes
TTITLE9=The Irrtum Boys
TTITLE10=Envoye
TTITLE11=Soul Idiot
TTITLE12=C.S.C.L.D.F.
EXTD=YEAR: 1987
EXTT0=
EXTT1=
EXTT2=
EXTT3=
EXTT4=
EXTT5=
EXTT6=
EXTT7=
EXTT8=
EXTT9=
EXTT10=
EXTT11=
EXTT12=
PLAYORDER=
